<svg xmlns="http://www.w3.org/2000/svg" xmlns:xlink="http://www.w3.org/1999/xlink" width="1239.854" height="345.921" viewBox="0 0 1239.854 345.921">
  <defs>
    <linearGradient id="linear-gradient" y1="1" x2="1" gradientUnits="objectBoundingBox">
      <stop offset="0" stop-color="#ffc34d"/>
      <stop offset="1" stop-color="#ffa800"/>
    </linearGradient>
    <linearGradient id="linear-gradient-2" x1="1" x2="0" y2="1" gradientUnits="objectBoundingBox">
      <stop offset="0" stop-color="#fea44c"/>
      <stop offset="1" stop-color="#fc6500"/>
    </linearGradient>
  </defs>
  <g id="Logo-Dark" transform="translate(-1297.063 -907.04)">
    <path d="M92.939-24.871H40.953L32.351,0H4.862L51.8-130.713H82.28L129.217,0H101.541ZM85.833-45.815l-18.887-54.6-18.887,54.6Zm87.142-42.636a37.435,37.435,0,0,1,13.931-12.155,42.909,42.909,0,0,1,20.29-4.675,45.3,45.3,0,0,1,24.029,6.545A46.049,46.049,0,0,1,248.242-80.13q6.264,12.062,6.265,27.956t-6.265,28.144a47.114,47.114,0,0,1-17.017,18.98A44.355,44.355,0,0,1,207.2,1.683,42.915,42.915,0,0,1,186.906-2.9a39.411,39.411,0,0,1-13.931-11.875V0h-26.18V-138.38h26.18Zm54.791,36.278a32.511,32.511,0,0,0-3.834-16.175,26.542,26.542,0,0,0-10.1-10.379,27.023,27.023,0,0,0-13.557-3.553,26.148,26.148,0,0,0-13.371,3.647,27.065,27.065,0,0,0-10.1,10.565A33.044,33.044,0,0,0,172.975-51.8a33.044,33.044,0,0,0,3.833,16.269,27.065,27.065,0,0,0,10.1,10.566,26.148,26.148,0,0,0,13.371,3.647,25.981,25.981,0,0,0,13.557-3.74,27.763,27.763,0,0,0,10.1-10.659A33.448,33.448,0,0,0,227.766-52.173Zm72-86.207V0h-26.18V-138.38Zm19.074,86.207q0-15.708,6.264-27.863a45.916,45.916,0,0,1,17.017-18.7,45.3,45.3,0,0,1,24.029-6.545,42.211,42.211,0,0,1,20.289,4.675,41.171,41.171,0,0,1,13.932,11.781V-103.6h26.367V0H400.367V-15.147A38.941,38.941,0,0,1,386.435-3.086a42.625,42.625,0,0,1-20.476,4.769,44.026,44.026,0,0,1-23.842-6.732A47.115,47.115,0,0,1,325.1-24.029Q318.835-36.278,318.835-52.173Zm81.532.374a33.58,33.58,0,0,0-3.74-16.363,26.369,26.369,0,0,0-10.1-10.472,26.989,26.989,0,0,0-13.651-3.647,26.515,26.515,0,0,0-13.464,3.553,26.755,26.755,0,0,0-10,10.379,32.51,32.51,0,0,0-3.834,16.175,33.582,33.582,0,0,0,3.834,16.363,27.6,27.6,0,0,0,10.1,10.753,25.652,25.652,0,0,0,13.37,3.74,26.989,26.989,0,0,0,13.651-3.647,26.369,26.369,0,0,0,10.1-10.472A33.58,33.58,0,0,0,400.367-51.8Zm75.922,30.294h46.189V0H446.556V-21.131L491.81-82.093H446.743V-103.6h75.174v21.131Zm162.69-32.538a61.786,61.786,0,0,1-.748,10.1H562.5q.935,11.22,7.854,17.578a24.218,24.218,0,0,0,17.017,6.358q14.586,0,20.757-12.529h28.237a47.19,47.19,0,0,1-17.2,24.591q-12.716,9.631-31.229,9.631a54.041,54.041,0,0,1-26.834-6.639,46.725,46.725,0,0,1-18.513-18.794Q535.942-35.9,535.942-51.8q0-16.082,6.545-28.237a45.668,45.668,0,0,1,18.326-18.7q11.781-6.545,27.115-6.545a54.465,54.465,0,0,1,26.461,6.358,44.747,44.747,0,0,1,18.139,18.046Q638.979-69.19,638.979-54.043Zm-27.115-7.48q-.187-10.1-7.293-16.175a25.837,25.837,0,0,0-17.391-6.077,23.764,23.764,0,0,0-16.362,5.89q-6.638,5.891-8.135,16.362Z" transform="translate(1897.938 1144.775)" fill="#24293d"/>
    <g>
      <g transform="translate(1297.063 907.04)">
        <path d="M223.141,0h82.21c0,123.237-99.9,223.141-223.141,223.141H0C0,99.9,99.9,0,223.141,0Z" transform="translate(0 152.675) rotate(-30)" fill="#fff"/>
        <path d="M223.141,0h82.21c0,123.237-99.9,223.141-223.141,223.141H0C0,99.9,99.9,0,223.141,0Z" transform="translate(492.457 193.245) rotate(150)" fill="#fff"/>
      </g>
      <g transform="translate(1297.063 907.04)">
        <path d="M223.141,0h82.21c0,123.237-99.9,223.141-223.141,223.141H0C0,99.9,99.9,0,223.141,0Z" transform="translate(0 152.675) rotate(-30)" opacity="0.9" fill="url(#linear-gradient)"/>
        <path d="M223.141,0h82.21c0,123.237-99.9,223.141-223.141,223.141H0C0,99.9,99.9,0,223.141,0Z" transform="translate(492.457 193.245) rotate(150)" opacity="0.9" fill="url(#linear-gradient-2)"/>
      </g>
    </g>
  </g>
</svg>
