<?xml version="1.0" encoding="UTF-8"?><svg id="_レイヤー_1" xmlns="http://www.w3.org/2000/svg" width="345.4" height="248.3" viewBox="0 0 345.4 248.3"><g><path d="M223.74,248.3c-13.68,0-26.84-5.04-37.06-14.19-9.51-8.51-21.43-12.74-33.34-12.74-12.54,0-25.06,4.69-34.73,14.03-6.99,6.74-16.15,10.46-25.8,10.46-20.51,0-37.2-16.69-37.2-37.2,0-2.58,.26-5.14,.78-7.61,4.66-22.41-6.48-45.12-27.06-55.14C11.51,137.23,0,118.89,0,99.18c0-28.62,23.28-51.9,51.9-51.9,0,0,.71,0,.87,0,16.68,0,32.28-8.32,41.56-22.21C104.83,9.38,122.3,0,141.06,0,155.52,0,169.28,5.53,179.78,15.57c9.64,9.21,22.08,13.85,34.54,13.85,11.58,0,23.19-4,32.58-12.08,5.05-4.34,13.61-9.52,25.65-9.52,21.76,0,39.47,17.71,39.47,39.47,0,1.15-.05,2.32-.15,3.47-1.39,15.74,4.74,31.21,16.53,41.73,10.8,9.63,17,23.36,17,37.68,0,22.09-14.78,41.98-35.95,48.36-15.48,4.67-27.74,16.54-32.92,31.85-7.67,22.69-28.88,37.93-52.79,37.93Z" style="fill:#edf2f7;"/><g><path d="M188.02,50.71c-.15-.65-.57-1.19-1.16-1.51-.55-.3-1.19-.37-1.78-.19-.04,.01-.08,.02-.11,.04l-3.87,1.35,2.15-3.49c.35-.57,.44-1.25,.25-1.89s-.63-1.16-1.23-1.45l-3.69-1.78,3.99-.95s.08-.02,.12-.03c.59-.17,1.1-.58,1.4-1.13,.32-.58,.37-1.27,.16-1.9l-1.35-3.87,3.49,2.15c.57,.35,1.25,.44,1.89,.25s1.16-.63,1.45-1.23l1.78-3.69,.95,3.99c.15,.65,.57,1.19,1.16,1.51,.55,.3,1.19,.37,1.78,.19,.04-.01,.08-.02,.11-.04l3.87-1.35-2.14,3.49c-.35,.57-.44,1.25-.25,1.89s.63,1.16,1.23,1.45l3.69,1.78-3.99,.95s-.08,.02-.12,.03c-.59,.17-1.1,.58-1.4,1.13-.32,.58-.37,1.27-.16,1.9l1.35,3.85c-.14-.07-.36-.21-.54-.32l-2.95-1.81c-.57-.35-1.25-.44-1.89-.25s-1.16,.63-1.45,1.23l-1.78,3.69-.95-3.98Z" style="fill:#f6ad55; stroke:#f6ad55; stroke-linecap:round; stroke-linejoin:round; stroke-width:3px;"/><path d="M301.33,120.46c.07-.66-.14-1.32-.58-1.81-.41-.47-1-.75-1.62-.78-.04,0-.08,0-.12,0l-4.1-.03,3.19-2.57c.52-.42,.83-1.03,.87-1.69s-.21-1.31-.67-1.78l-2.88-2.92,4.07,.44s.08,0,.12,0c.62,.04,1.23-.18,1.69-.59,.5-.44,.78-1.07,.78-1.74l.03-4.1,2.57,3.19c.42,.52,1.03,.83,1.69,.87s1.31-.21,1.78-.67l2.92-2.88-.44,4.07c-.07,.66,.14,1.32,.58,1.81,.41,.47,1,.75,1.62,.78,.04,0,.08,0,.12,0l4.1,.03-3.19,2.57c-.52,.42-.83,1.03-.87,1.69s.21,1.31,.67,1.78l2.88,2.92-4.07-.44s-.08,0-.12,0c-.62-.04-1.23,.18-1.69,.59-.5,.44-.78,1.07-.78,1.74l-.03,4.08c-.11-.11-.27-.32-.4-.48l-2.17-2.69c-.42-.52-1.03-.83-1.69-.87s-1.31,.21-1.78,.67l-2.91,2.88,.44-4.07Z" style="fill:#f6ad55; stroke:#f6ad55; stroke-linecap:round; stroke-linejoin:round; stroke-width:3px;"/><path d="M285.84,70.7c.07-.66-.14-1.32-.58-1.81-.41-.47-1-.75-1.62-.78-.04,0-.08,0-.12,0l-4.1-.03,3.19-2.57c.52-.42,.83-1.03,.87-1.69s-.21-1.31-.67-1.78l-2.88-2.92,4.07,.44s.08,0,.12,0c.62,.04,1.23-.18,1.69-.59,.5-.44,.78-1.07,.78-1.74l.03-4.1,2.57,3.19c.42,.52,1.03,.83,1.69,.87s1.31-.21,1.78-.67l2.92-2.88-.44,4.07c-.07,.66,.14,1.32,.58,1.81,.41,.47,1,.75,1.62,.78,.04,0,.08,0,.12,0l4.1,.03-3.19,2.57c-.52,.42-.83,1.03-.87,1.69s.21,1.31,.67,1.78l2.88,2.92-4.07-.44s-.08,0-.12,0c-.62-.04-1.23,.18-1.69,.59-.5,.44-.78,1.07-.78,1.74l-.03,4.08c-.11-.11-.27-.32-.4-.48l-2.17-2.69c-.42-.52-1.03-.83-1.69-.87s-1.31,.21-1.78,.67l-2.91,2.88,.44-4.07Z" style="fill:#f6ad55; stroke:#f6ad55; stroke-linecap:round; stroke-linejoin:round; stroke-width:3px;"/><path d="M239.5,224.19c.07-.66-.14-1.32-.58-1.81-.41-.47-1-.75-1.62-.78-.04,0-.08,0-.12,0l-4.1-.03,3.19-2.57c.52-.42,.83-1.03,.87-1.69s-.21-1.31-.67-1.78l-2.88-2.92,4.07,.44s.08,0,.12,0c.62,.04,1.23-.18,1.69-.59,.5-.44,.78-1.07,.78-1.74l.03-4.1,2.57,3.19c.42,.52,1.03,.83,1.69,.87s1.31-.21,1.78-.67l2.92-2.88-.44,4.07c-.07,.66,.14,1.32,.58,1.81,.41,.47,1,.75,1.62,.78,.04,0,.08,0,.12,0l4.1,.03-3.19,2.57c-.52,.42-.83,1.03-.87,1.69s.21,1.31,.67,1.78l2.88,2.92-4.07-.44s-.08,0-.12,0c-.62-.04-1.23,.18-1.69,.59-.5,.44-.78,1.07-.78,1.74l-.03,4.08c-.11-.11-.27-.32-.4-.48l-2.17-2.69c-.42-.52-1.03-.83-1.69-.87s-1.31,.21-1.78,.67l-2.91,2.88,.44-4.07Z" style="fill:#f6ad55; stroke:#f6ad55; stroke-linecap:round; stroke-linejoin:round; stroke-width:3px;"/><path d="M204.28,59.66c6.3-1.88,8.01,3.87,14.31,2s4.59-7.63,10.89-9.51,8.01,3.87,14.32,2,4.59-7.63,10.9-9.51,8.02,3.87,14.32,1.99" style="fill:none; stroke:#edf2f7; stroke-linecap:round; stroke-linejoin:round; stroke-width:3px;"/><path d="M259.86,131.54c4.2,2.34,1.28,7.58,5.49,9.92s7.12-2.9,11.32-.56,1.28,7.58,5.49,9.92,7.12-2.9,11.33-.56,1.29,7.58,5.49,9.92" style="fill:none; stroke:#edf2f7; stroke-linecap:round; stroke-linejoin:round; stroke-width:3px;"/><path d="M197.51,214.59c4.53-2.25,7.2,3.13,11.72,.88s1.87-7.62,6.4-9.87,7.2,3.13,11.72,.88,1.87-7.62,6.4-9.87,7.2,3.13,11.73,.88" style="fill:none; stroke:#edf2f7; stroke-linecap:round; stroke-linejoin:round; stroke-width:3px;"/><path d="M108.16,225.36c-.15-.65-.57-1.19-1.16-1.51-.55-.3-1.19-.37-1.78-.19-.04,.01-.08,.02-.11,.04l-3.87,1.35,2.15-3.49c.35-.57,.44-1.25,.25-1.89s-.63-1.16-1.23-1.45l-3.69-1.78,3.99-.95s.08-.02,.12-.03c.59-.17,1.1-.58,1.4-1.13,.32-.58,.37-1.27,.16-1.9l-1.35-3.87,3.49,2.15c.57,.35,1.25,.44,1.89,.25s1.16-.63,1.45-1.23l1.78-3.69,.95,3.99c.15,.65,.57,1.19,1.16,1.51,.55,.3,1.19,.37,1.78,.19,.04-.01,.08-.02,.11-.04l3.87-1.35-2.14,3.49c-.35,.57-.44,1.25-.25,1.89s.63,1.16,1.23,1.45l3.69,1.78-3.99,.95s-.08,.02-.12,.03c-.59,.17-1.1,.58-1.4,1.13-.32,.58-.37,1.27-.16,1.9l1.35,3.85c-.14-.07-.36-.21-.54-.32l-2.95-1.81c-.57-.35-1.25-.44-1.89-.25s-1.16,.63-1.45,1.23l-1.78,3.69-.95-3.98Z" style="fill:#f6ad55; stroke:#f6ad55; stroke-linecap:round; stroke-linejoin:round; stroke-width:3px;"/><path d="M38.02,58.96c5.08,2.73,2.25,8.02,7.33,10.75s7.93-2.55,13.01,.18,2.25,8.02,7.33,10.75,7.93-2.55,13.02,.18,2.25,8.02,7.34,10.75" style="fill:none; stroke:#edf2f7; stroke-linecap:round; stroke-linejoin:round; stroke-width:3px;"/><g><circle cx="62.04" cy="121.7" r="15.23" style="fill:#fc8181;"/><line x1="55.04" y1="116.54" x2="69.04" y2="126.87" style="fill:none; stroke:#fff; stroke-linecap:round; stroke-miterlimit:10; stroke-width:4px;"/><line x1="67.2" y1="114.7" x2="56.87" y2="128.7" style="fill:none; stroke:#fff; stroke-linecap:round; stroke-miterlimit:10; stroke-width:4px;"/></g><g><circle cx="256.29" cy="173.35" r="15.23" style="fill:#fc8181;"/><line x1="251.47" y1="166.11" x2="261.12" y2="180.59" style="fill:none; stroke:#fff; stroke-linecap:round; stroke-miterlimit:10; stroke-width:4px;"/><line x1="263.53" y1="168.52" x2="249.06" y2="178.18" style="fill:none; stroke:#fff; stroke-linecap:round; stroke-miterlimit:10; stroke-width:4px;"/></g><path d="M122.98,30.47c.07-.66-.14-1.32-.58-1.81-.41-.47-1-.75-1.62-.78-.04,0-.08,0-.12,0l-4.1-.03,3.19-2.57c.52-.42,.83-1.03,.87-1.69s-.21-1.31-.67-1.78l-2.88-2.92,4.07,.44s.08,0,.12,0c.62,.04,1.23-.18,1.69-.59,.5-.44,.78-1.07,.78-1.74l.03-4.1,2.57,3.19c.42,.52,1.03,.83,1.69,.87s1.31-.21,1.78-.67l2.92-2.88-.44,4.07c-.07,.66,.14,1.32,.58,1.81,.41,.47,1,.75,1.62,.78,.04,0,.08,0,.12,0l4.1,.03-3.19,2.57c-.52,.42-.83,1.03-.87,1.69s.21,1.31,.67,1.78l2.88,2.92-4.07-.44s-.08,0-.12,0c-.62-.04-1.23,.18-1.69,.59-.5,.44-.78,1.07-.78,1.74l-.03,4.08c-.11-.11-.27-.32-.4-.48l-2.17-2.69c-.42-.52-1.03-.83-1.69-.87s-1.31,.21-1.78,.67l-2.91,2.88,.44-4.07Z" style="fill:#f6ad55; stroke:#f6ad55; stroke-linecap:round; stroke-linejoin:round; stroke-width:3px;"/><path d="M68.53,198.18c4.57-2.45,7.4,2.84,11.97,.39s1.74-7.74,6.31-10.19,7.4,2.84,11.97,.39,1.74-7.74,6.32-10.19,7.41,2.84,11.98,.39" style="fill:none; stroke:#edf2f7; stroke-linecap:round; stroke-linejoin:round; stroke-width:3px;"/></g></g><g><line x1="101.45" y1="47.29" x2="255.68" y2="201.51" style="fill:none; stroke:#b794f4; stroke-linecap:round; stroke-linejoin:round; stroke-width:30px;"/><line x1="255.68" y1="47.29" x2="101.45" y2="201.51" style="fill:none; stroke:#b794f4; stroke-linecap:round; stroke-linejoin:round; stroke-width:30px;"/></g><g><path d="M169.93,229.83s80.79-24.3,80.79-147.26c-48.47-15.72-80.79-38.54-80.79-38.54,0,0-30.03,22.82-78.5,38.54,0,122.96,78.5,147.26,78.5,147.26Z" style="fill:#f56565; stroke:#cbd5e0; stroke-linejoin:round; stroke-width:8px;"/><path d="M200.38,75.29c20.02,10.01,33.57,14.72,33.57,14.72,0,0,1.49,16.49-4.12,31.21" style="fill:none; opacity:.7; stroke:#fff; stroke-linecap:round; stroke-linejoin:round; stroke-width:8px;"/></g></svg>