<?xml version="1.0" encoding="UTF-8"?><svg id="_レイヤー_1" xmlns="http://www.w3.org/2000/svg" viewBox="0 0 370.59 246.02"><g><path d="M230.76,244.02c-2.32,0-4.46-.42-6.18-1.22L9.89,142.97c-2.16-1-3.48-2.52-3.73-4.28-.29-2.06,.87-4.41,3.2-6.43L126.98,29.81c3.24-2.82,8.21-4.58,12.98-4.58,2.32,0,4.46,.42,6.18,1.22l214.69,99.82c2.16,1,3.48,2.52,3.73,4.28,.29,2.06-.87,4.41-3.2,6.44l-117.62,102.45c-3.24,2.82-8.21,4.58-12.98,4.58Z" style="fill:#edf2f7;"/><path d="M139.96,23.23v4c2.03,0,3.88,.36,5.34,1.04l214.69,99.82c.88,.41,2.39,1.31,2.59,2.74,.19,1.36-.75,3.1-2.53,4.65l-117.62,102.45c-2.89,2.52-7.36,4.09-11.66,4.09-2.03,0-3.88-.36-5.34-1.04L10.74,141.16c-.88-.41-2.39-1.31-2.59-2.74-.19-1.36,.75-3.1,2.53-4.65L128.29,31.32c2.89-2.52,7.36-4.09,11.66-4.09v-4m0,0c-5.07,0-10.55,1.81-14.29,5.07L8.05,130.75c-5.61,4.89-5.16,11.17,1,14.03l214.69,99.82c2.06,.96,4.49,1.41,7.02,1.41,5.07,0,10.55-1.81,14.29-5.07l117.62-102.45c5.61-4.89,5.16-11.17-1-14.03L146.98,24.65c-2.06-.96-4.49-1.41-7.02-1.41h0Z" style="fill:#cbd5e0;"/></g><g><g><path d="M230.76,228.78c-2.9,0-5.62-.55-7.87-1.6L8.21,127.37c-3.43-1.59-5.56-4.2-6-7.34-.49-3.43,1.17-7.08,4.53-10.01L124.35,7.56c4-3.48,9.83-5.56,15.6-5.56,2.9,0,5.62,.55,7.87,1.6l214.68,99.82c3.43,1.59,5.56,4.2,6,7.34,.49,3.43-1.17,7.08-4.53,10.01l-117.62,102.45c-4,3.48-9.83,5.56-15.6,5.56Z" style="fill:#fff;"/><path d="M139.95,4c2.54,0,4.97,.45,7.02,1.41l214.69,99.82c6.16,2.86,6.61,9.15,1,14.03l-117.62,102.45c-3.74,3.26-9.22,5.07-14.29,5.07-2.54,0-4.97-.45-7.02-1.41L9.05,125.55c-6.16-2.86-6.61-9.15-1-14.03L125.67,9.07c3.74-3.26,9.22-5.07,14.29-5.07m0-4h0c-6.24,0-12.56,2.26-16.92,6.05L5.42,108.5c-3.89,3.39-5.78,7.69-5.2,11.8,.54,3.78,3.14,7.02,7.14,8.88l214.69,99.82c2.51,1.17,5.52,1.78,8.71,1.78,6.24,0,12.56-2.26,16.92-6.05l117.62-102.45c3.89-3.39,5.78-7.69,5.2-11.8-.54-3.78-3.14-7.02-7.14-8.88L148.67,1.78c-2.51-1.17-5.52-1.78-8.71-1.78h0Z" style="fill:#a0aec0;"/></g><g><polygon points="40.44 142.39 154.89 42.7 281.8 101.71 167.36 201.4 40.44 142.39" style="fill:#fff;"/><path d="M155.22,45.06l122.94,57.16-111.14,96.81-122.94-57.16L155.22,45.06m-.67-4.72l-1.96,1.71L41.45,138.86l-4.65,4.05,5.59,2.6,122.94,57.16,2.36,1.1,1.96-1.71,111.14-96.81,4.65-4.05-5.59-2.6-122.94-57.16-2.36-1.1h0Z" style="fill:#a0aec0;"/></g><line x1="158.31" y1="64.64" x2="253.54" y2="108.92" style="fill:none; stroke:#cbd5e0; stroke-linecap:round; stroke-miterlimit:10; stroke-width:10px;"/><line x1="150.29" y1="77.54" x2="234.24" y2="116.57" style="fill:none; stroke:#cbd5e0; stroke-linecap:round; stroke-miterlimit:10; stroke-width:4px;"/><line x1="144.21" y1="82.83" x2="228.15" y2="121.86" style="fill:none; stroke:#cbd5e0; stroke-linecap:round; stroke-miterlimit:10; stroke-width:4px;"/><line x1="137.63" y1="88.66" x2="221.57" y2="127.68" style="fill:none; stroke:#cbd5e0; stroke-linecap:round; stroke-miterlimit:10; stroke-width:4px;"/><line x1="131.55" y1="93.95" x2="215.49" y2="132.98" style="fill:none; stroke:#cbd5e0; stroke-linecap:round; stroke-miterlimit:10; stroke-width:4px;"/><line x1="125.47" y1="99.25" x2="209.41" y2="138.28" style="fill:none; stroke:#cbd5e0; stroke-linecap:round; stroke-miterlimit:10; stroke-width:4px;"/><line x1="119.38" y1="104.55" x2="167.46" y2="126.9" style="fill:none; stroke:#cbd5e0; stroke-linecap:round; stroke-miterlimit:10; stroke-width:4px;"/><path d="M125.67,9.07l237,110.19-14.21,12.37L111.46,21.44l14.21-12.37Z" style="fill:#e2e8f0;"/><path d="M159.25,28.55l157.93,73.43c.81,.38,.84,1.23,.06,1.91l-5.61,4.88c-.78,.68-2.06,.92-2.88,.54L150.83,35.88c-.81-.38-.84-1.23-.06-1.91l5.61-4.88c.78-.68,2.06-.92,2.88-.54Z" style="fill:#fff;"/><path d="M125.67,9.07c5.61-4.89,15.15-6.52,21.31-3.66l214.69,99.82c6.16,2.86,6.61,9.15,1,14.03L125.67,9.07Z" style="fill:#edf2f7;"/></g><line x1="349.07" y1="132.91" x2="112.07" y2="22.72" style="fill:none; stroke:#a0aec0; stroke-linecap:round; stroke-miterlimit:10; stroke-width:4px;"/><g><g><g><path d="M8.21,111.83c-3.5-1.63-5.68-4.27-6.13-7.44-.47-3.32,1.09-6.82,4.29-9.6L108.7,5.66l50.16,23.32L44.41,128.66,8.21,111.83Z" style="fill:#fff;"/><path d="M109.04,8.02l46.18,21.47L44.08,126.3,9.05,110.01c-6.16-2.86-6.77-9.01-1.36-13.72L109.04,8.02m-.67-4.72l-1.96,1.71L5.06,93.28c-3.72,3.24-5.53,7.39-4.96,11.39,.54,3.8,3.19,7.07,7.26,8.97l35.03,16.29,2.36,1.1,1.96-1.71L157.85,32.51l4.65-4.05-5.59-2.6L110.72,4.39l-2.36-1.1h0Z" style="fill:#a0aec0;"/></g><g><path d="M230.94,213.29c-2.96,0-5.74-.57-8.05-1.64l-56.19-26.13,114.44-99.68,68.52,31.86-103.67,90.3c-3.8,3.31-9.43,5.29-15.06,5.29Z" style="fill:#fff;"/><path d="M281.48,88.2l64.55,30.01-101.35,88.28c-3.55,3.09-8.81,4.8-13.74,4.8-2.59,0-5.09-.47-7.21-1.45l-53.4-24.83,111.14-96.81m-.67-4.72l-1.96,1.71-111.14,96.81-4.65,4.05,5.59,2.6,53.4,24.83c2.57,1.2,5.65,1.83,8.89,1.83,6.09,0,12.21-2.16,16.37-5.78l101.35-88.28,4.65-4.05-5.59-2.6-64.55-30.01-2.36-1.1h0Z" style="fill:#a0aec0;"/></g></g><line x1="273.88" y1="94.78" x2="338.44" y2="124.79" style="fill:none; stroke:#a0aec0; stroke-linecap:round; stroke-miterlimit:10; stroke-width:4px;"/><line x1="336.46" y1="115.73" x2="336.74" y2="119.72" style="fill:none; stroke:#a0aec0; stroke-miterlimit:10;"/><line x1="339.63" y1="117.21" x2="333.57" y2="118.25" style="fill:none; stroke:#a0aec0; stroke-miterlimit:10;"/><polygon points="294 150.33 250.4 130.06 276.97 106.92 320.57 127.19 294 150.33" style="fill:#cbd5e0;"/><line x1="246.54" y1="135.6" x2="280.65" y2="151.46" style="fill:none; stroke:#cbd5e0; stroke-linecap:round; stroke-miterlimit:10; stroke-width:4px;"/><polygon points="245.34 192.72 201.74 172.45 228.31 149.31 271.91 169.58 245.34 192.72" style="fill:#cbd5e0;"/><line x1="197.88" y1="177.99" x2="228" y2="192" style="fill:none; stroke:#cbd5e0; stroke-linecap:round; stroke-miterlimit:10; stroke-width:4px;"/><polygon points="112.47 13.04 139.07 25.41 134.56 29.33 107.97 16.97 112.47 13.04" style="fill:#e2e8f0;"/><polyline points="143.42 29.33 140.45 29.85 140.31 27.89" style="fill:none; stroke:#a0aec0; stroke-miterlimit:10;"/></g></svg>