<?xml version="1.0" encoding="UTF-8"?>
<svg id="_レイヤー_1" data-name="レイヤー 1" xmlns="http://www.w3.org/2000/svg" width="480" height="270" xmlns:xlink="http://www.w3.org/1999/xlink" viewBox="0 0 480 270">
  <defs>
    <clipPath id="clippath">
      <rect x="85.09" y="14.77" width="107.26" height="307.85" transform="translate(-44.38 49.63) rotate(-17.53)" style="fill: none;"/>
    </clipPath>
    <clipPath id="clippath-1">
      <rect x="187.36" y="-17.54" width="107.26" height="307.85" transform="translate(-29.89 78.94) rotate(-17.53)" style="fill: none;"/>
    </clipPath>
    <clipPath id="clippath-2">
      <rect x="289.56" y="-50.3" width="110.16" height="307.85" transform="translate(-15.21 108.65) rotate(-17.53)" style="fill: none;"/>
    </clipPath>
  </defs>
  <g>
    <rect x="178.42" y="215.83" width="128.98" height="31.8" rx="5" ry="5" transform="translate(-92.71 239.63) rotate(-45)" style="fill: #f6ad55;"/>
    <path d="M267.77,245.27l67.8,67.8c3.13,3.13,3.12,8.2,0,11.31s-8.19,3.13-11.31,0l-66.39-66.39-46.61,46.61c-1.95,1.95-5.12,1.95-7.07,0l-17.08-17.08c-1.95-1.95-1.95-5.12,0-7.07s5.12-1.95,7.07,0l13.54,13.54,48.73-48.73c1.56-1.56,3.61-2.34,5.65-2.34,2.05,0,4.1,.78,5.66,2.34Z" style="fill: #cbd5e0;"/>
    <path d="M284.9,191.34c2.56,4.12-11.21,2.54-14.64,5.97s3.64,10.5,.21,13.93-10.5-3.64-13.93-.21,3.64,10.5,.21,13.93-10.5-3.64-13.93-.21,3.64,10.5,.21,13.93-10.5-3.64-13.93-.21,3.64,10.5,.21,13.93-10.5-3.64-13.94-.21,3.64,10.51,.2,13.94-3.64,1.66-7.76-.91c-17.71-11.02-20.93-6.97-35.68-21.72-14.75-14.75-7.68-21.82-22.43-36.57-14.75-14.75-21.82-7.68-36.57-22.42s-7.68-21.82-22.43-36.57-21.82-7.68-36.57-22.43c-14.75-14.75-7.68-21.82-22.43-36.57-14.75-14.75-21.82-7.68-36.57-22.43s-7.68-21.82-22.43-36.58-21.82-7.68-36.57-22.43-7.68-21.82-22.44-36.58-26.26-5.62-37.29-23.33c-2.56-4.12,11.21-2.54,14.64-5.97s-3.64-10.5-.21-13.93,10.5,3.64,13.93,.21-3.64-10.5-.21-13.93,10.5,3.64,13.93,.21-3.64-10.5-.21-13.93,10.5,3.64,13.93,.21-3.64-10.5-.21-13.93,10.5,3.64,13.94,.21-3.64-10.51-.2-13.94,3.64-1.66,7.76,.91c17.71,11.02,20.93,6.97,35.68,21.72s7.68,21.82,22.43,36.57,21.82,7.68,36.57,22.42,7.68,21.82,22.43,36.57S92.41-1.33,107.16,13.42s7.68,21.82,22.43,36.57,21.82,7.68,36.57,22.43c14.75,14.75,7.68,21.82,22.43,36.58s21.82,7.68,36.57,22.43,6.23,24.65,23,37.06c17.58,13.01,25.7,5.13,36.73,22.85Z" style="fill: #f6ad55;"/>
  </g>
  <g>
    <rect x="362.35" y="195.29" width="128.98" height="31.8" rx="5" ry="5" transform="translate(-24.32 363.68) rotate(-45)" style="fill: #b794f4;"/>
    <path d="M451.69,224.73l67.8,67.8c3.13,3.13,3.12,8.2,0,11.31-3.13,3.13-8.19,3.13-11.31,0l-66.39-66.39-46.61,46.61c-1.95,1.95-5.12,1.95-7.07,0l-17.08-17.08c-1.95-1.95-1.95-5.12,0-7.07s5.12-1.95,7.07,0l13.54,13.54,48.73-48.73c1.56-1.56,3.61-2.34,5.65-2.34,2.05,0,4.1,.78,5.66,2.34Z" style="fill: #cbd5e0;"/>
    <path d="M468.54,171.16c2.64,4.35-11.4,2.66-15,6.25s3.47,10.67-.12,14.26-10.67-3.48-14.26,.12,3.48,10.67-.12,14.26-10.67-3.48-14.26,.12,3.48,10.67-.12,14.26-10.67-3.47-14.26,.12,3.48,10.67-.12,14.26-10.67-3.47-14.27,.12,3.47,10.67-.13,14.27-3.79,2.04-8.14-.61c-17.83-10.83-20.88-6.94-35.63-21.69s-7.68-21.82-22.43-36.57-21.82-7.68-36.57-22.42-7.68-21.82-22.43-36.57-21.82-7.68-36.57-22.43c-14.75-14.75-7.68-21.82-22.43-36.57-14.75-14.75-21.82-7.68-36.57-22.43s-7.68-21.82-22.43-36.58-21.82-7.68-36.57-22.43c-14.75-14.75-7.68-21.82-22.44-36.58s-26.47-5.55-37.32-23.37c-2.64-4.35,11.4-2.66,15-6.25s-3.47-10.67,.12-14.26,10.67,3.48,14.26-.12-3.48-10.67,.12-14.26,10.67,3.48,14.26-.12-3.48-10.67,.12-14.26,10.67,3.47,14.26-.12-3.48-10.67,.12-14.26,10.67,3.47,14.27-.12-3.47-10.67,.13-14.27,3.79-2.04,8.14,.61c17.83,10.83,20.88,6.94,35.63,21.69,14.75,14.75,7.68,21.82,22.43,36.57s21.82,7.68,36.57,22.42c14.75,14.75,7.68,21.82,22.43,36.57s21.82,7.68,36.57,22.43c14.75,14.75,7.68,21.82,22.43,36.57,14.75,14.75,21.82,7.68,36.57,22.43,14.75,14.75,7.68,21.82,22.43,36.58,14.75,14.75,21.82,7.68,36.57,22.43s6.2,24.7,23.01,37.07c17.65,12.99,25.9,5.05,36.74,22.88Z" style="fill: #b794f4;"/>
  </g>
  <g style="clip-path: url(#clippath);">
    <g>
      <rect x="101.76" y="49.74" width="278.47" height="170.52" rx="14.2" ry="14.2" style="fill: #a0aec0; stroke: #a0aec0; stroke-miterlimit: 10; stroke-width: 12px;"/>
      <path d="M115.89,49.74h250.2c7.8,0,14.13,6.33,14.13,14.13v23.93H101.76v-23.93c0-7.8,6.33-14.13,14.13-14.13Z" style="fill: #e2e8f0;"/>
      <rect x="144.14" y="69.6" width="193.69" height="10.6" rx="1.77" ry="1.77" style="fill: #fff;"/>
      <path d="M101.76,93.68h52.47v126.58h-39.48c-7.17,0-12.99-5.82-12.99-12.99V93.68h0Z" style="fill: #fff;"/>
      <path d="M160.65,93.68h219.12v113.41c0,7.27-5.9,13.18-13.18,13.18H160.65V93.68h0Z" style="fill: #fff;"/>
      <rect x="106.38" y="97.43" width="32.02" height="5.96" style="fill: #e2e8f0;"/>
      <polyline points="145.35 99.31 143.49 101.19 141.61 99.31" style="fill: none; stroke: #a0aec0; stroke-miterlimit: 10;"/>
      <path d="M115.89,49.74h250.2c7.8,0,14.13,6.33,14.13,14.13v.07H101.76v-.07c0-7.8,6.33-14.13,14.13-14.13Z" style="fill: #edf2f7;"/>
    </g>
  </g>
  <g style="clip-path: url(#clippath-1);">
    <g>
      <rect x="101.18" y="49.74" width="278.47" height="170.52" rx="14.2" ry="14.2" style="fill: #a0aec0; stroke: #a0aec0; stroke-miterlimit: 10; stroke-width: 12px;"/>
      <path d="M115.31,49.74h250.2c7.8,0,14.13,6.33,14.13,14.13v23.93H101.18v-23.93c0-7.8,6.33-14.13,14.13-14.13Z" style="fill: #2d3748;"/>
      <rect x="143.56" y="69.6" width="193.69" height="10.6" rx="1.77" ry="1.77" style="fill: #1a202c;"/>
      <path d="M101.18,93.68h52.47v126.58h-39.48c-7.17,0-12.99-5.82-12.99-12.99V93.68h0Z" style="fill: #2d3748;"/>
      <path d="M160.08,93.68h219.12v113.41c0,7.27-5.9,13.18-13.18,13.18H160.08V93.68h0Z" style="fill: #2d3748;"/>
      <rect x="105.81" y="97.43" width="32.02" height="5.96" style="fill: #e2e8f0;"/>
      <polyline points="144.77 99.31 142.91 101.19 141.03 99.31" style="fill: none; stroke: #a0aec0; stroke-miterlimit: 10;"/>
      <path d="M115.89,49.74h250.2c7.8,0,14.13,6.33,14.13,14.13v.07H101.76v-.07c0-7.8,6.33-14.13,14.13-14.13Z" style="fill: #1a202c;"/>
    </g>
  </g>
  <g style="clip-path: url(#clippath-2);">
    <g>
      <rect x="101.76" y="49.74" width="278.47" height="170.52" rx="14.2" ry="14.2" style="fill: #a0aec0; stroke: #a0aec0; stroke-miterlimit: 10; stroke-width: 12px;"/>
      <path d="M115.89,49.74h250.2c7.8,0,14.13,6.33,14.13,14.13v.07H101.76v-.07c0-7.8,6.33-14.13,14.13-14.13Z" style="fill: #2a4365;"/>
      <rect x="100.62" y="63.94" width="279.75" height="23.85" style="fill: #e2e8f0;"/>
      <rect x="144.14" y="69.6" width="193.69" height="10.6" rx="1.77" ry="1.77" style="fill: #fff;"/>
      <path d="M101.76,93.68h52.47v126.58h-39.48c-7.17,0-12.99-5.82-12.99-12.99V93.68h0Z" style="fill: #fff;"/>
      <path d="M160.65,93.68h219.12v113.41c0,7.27-5.9,13.18-13.18,13.18H160.65V93.68h0Z" style="fill: #2a4365;"/>
      <rect x="106.38" y="97.43" width="32.02" height="5.96" style="fill: #e2e8f0;"/>
      <polyline points="145.35 99.31 143.49 101.19 141.61 99.31" style="fill: none; stroke: #a0aec0; stroke-miterlimit: 10;"/>
    </g>
  </g>
  <line x1="215.85" y1="122.39" x2="323.63" y2="122.39" style="fill: none; stroke: #fff; stroke-linecap: round; stroke-miterlimit: 10; stroke-width: 15px;"/>
  <line x1="232.34" y1="141.97" x2="307.14" y2="141.97" style="fill: none; stroke: #fff; stroke-linecap: round; stroke-miterlimit: 10; stroke-width: 5px;"/>
  <line x1="232.34" y1="153.09" x2="307.14" y2="153.09" style="fill: none; stroke: #fff; stroke-linecap: round; stroke-miterlimit: 10; stroke-width: 5px;"/>
</svg>